<?xml version="1.0" encoding="UTF-8" standalone="no"?>
<!-- Created with Inkscape (http://www.inkscape.org/) -->

<svg
   xmlns:dc="http://purl.org/dc/elements/1.1/"
   xmlns:cc="http://creativecommons.org/ns#"
   xmlns:rdf="http://www.w3.org/1999/02/22-rdf-syntax-ns#"
   xmlns:svg="http://www.w3.org/2000/svg"
   xmlns="http://www.w3.org/2000/svg"
   xmlns:sodipodi="http://sodipodi.sourceforge.net/DTD/sodipodi-0.dtd"
   xmlns:inkscape="http://www.inkscape.org/namespaces/inkscape"
   version="1.1"
   id="svg4485"
   width="735"
   height="142"
   viewBox="0 0 735 142"
   sodipodi:docname="logo_color.svg"
   inkscape:version="0.92.1 r15371">
  <metadata
     id="metadata4491">
    <rdf:RDF>
      <cc:Work
         rdf:about="">
        <dc:format>image/svg+xml</dc:format>
        <dc:type
           rdf:resource="http://purl.org/dc/dcmitype/StillImage" />
        <dc:title></dc:title>
      </cc:Work>
    </rdf:RDF>
  </metadata>
  <defs
     id="defs4489" />
  <sodipodi:namedview
     pagecolor="#ffffff"
     bordercolor="#666666"
     borderopacity="1"
     objecttolerance="10"
     gridtolerance="10"
     guidetolerance="10"
     inkscape:pageopacity="0"
     inkscape:pageshadow="2"
     inkscape:window-width="1280"
     inkscape:window-height="734"
     id="namedview4487"
     showgrid="false"
     inkscape:zoom="0.74150657"
     inkscape:cx="466.05092"
     inkscape:cy="130.82969"
     inkscape:window-x="1272"
     inkscape:window-y="-8"
     inkscape:window-maximized="1"
     inkscape:current-layer="svg4485"
     fit-margin-top="1"
     fit-margin-left="0"
     fit-margin-right="0"
     fit-margin-bottom="0" />
  <path
     style="fill:#000;fill-opacity:1;stroke-width:0.99908733"
     d="M 36.603284,140.00031 C 35.230793,139.78495 29.616055,138.90742 24.12609,138.05025 8.5822656,135.62331 2.9397108,132.11256 0.60157068,123.4135 -1.8723535,114.20926 3.487566,104.98193 12.941866,102.16918 c 4.515624,-1.34345 8.665861,-1.94197 8.701898,-1.25494 0.0072,0.1375 0.848878,4.3 1.870369,9.25 4.310129,20.88629 11.823345,28.43653 29.158058,29.30175 19.91446,0.99398 32.955941,-8.70882 33.105636,-24.63046 0.108582,-11.54874 -4.829224,-16.508097 -27.580382,-27.700729 -12.80367,-6.29887 -19.6704,-11.93206 -23.124691,-18.97057 -2.909027,-5.92746 -2.678508,-19.28151 0.44426,-25.73622 4.734924,-9.78701 13.715332,-16.28899 26.780374,-19.38945 5.581377,-1.32452 9.418758,-1.45954 22.218321,-0.78172 8.509438,0.45063 19.097101,0.76415 23.528141,0.69672 l 8.05644,-0.12261 -2.85538,16.66664 c -1.57047,9.16665 -3.11427,17.34164 -3.43068,18.16664 -0.31641,0.825 -1.191,-1.4213 -1.94352,-4.99178 -3.12177,-14.81177 -8.083565,-23.20687 -16.033572,-27.12795 -4.002919,-1.97431 -6.358134,-2.37941 -13.80957,-2.37521 -12.92089,0.007 -21.137521,4.04467 -25.428802,12.49494 -2.666163,5.25014 -3.264644,9.37311 -2.028283,13.973 1.913431,7.11893 6.69514,11.17724 23.072616,19.58208 24.265096,12.45273 30.200031,19.59339 30.291081,36.444929 0.0396,7.3258 -0.33736,9.28195 -2.72877,14.16054 -4.787242,9.76623 -14.545205,16.64005 -27.5388,19.39921 -6.098307,1.29496 -30.500621,1.80609 -37.063326,0.77632 z m 98.320276,-0.0465 c -13.66594,-1.87459 -19.97295,-8.42994 -18.04031,-18.75066 0.9011,-4.81206 5.7218,-9.24788 14.53708,-13.37647 9.20771,-4.31238 8.6312,-3.80071 6.69606,-5.94291 -4.43258,-4.906915 -6.07916,-15.627809 -3.24381,-21.120749 5.15236,-9.98181 20.95112,-14.77505 33.96585,-10.30502 9.36584,3.21679 12.0744,11.83451 5.80008,18.45391 -3.32465,3.507511 -7.75253,5.880341 -15.52947,8.322016 -3.1679,0.9946 -5.63838,2.145502 -5.48997,2.557561 0.1484,0.412062 4.04718,5.565972 8.66395,11.453142 7.69144,9.8079 8.50612,10.55047 9.73221,8.87064 1.68624,-2.31029 1.74453,-8.88425 0.0903,-10.19431 -0.68625,-0.5435 -2.59525,-1.46307 -4.24225,-2.0435 -2.3876,-0.84143 -0.46567,-1.04802 9.48267,-1.01927 7.82766,0.0226 11.11436,0.30196 8.81996,0.74964 -5.50719,1.07455 -8.30968,3.38989 -11.70523,9.67059 l -3.07908,5.69528 5.50287,6.82323 c 3.7497,4.64942 6.52834,7.12011 8.72168,7.75508 2.49519,0.72236 0.72192,0.95213 -7.88781,1.02204 l -11.10659,0.0902 -12.76794,-16.5 c -7.02237,-9.075 -13.27804,-16.5 -13.90149,-16.5 -0.62345,0 -2.54644,1.4625 -4.27331,3.25 -8.9954,9.31128 -8.19324,24.36123 1.51504,28.42502 4.99693,2.09167 12.95572,1.19793 18.88196,-2.12036 2.53802,-1.42112 4.81553,-2.38254 5.06113,-2.13649 1.03322,1.0351 -10.00415,5.58239 -15.86061,6.53442 -3.49266,0.56776 -6.57489,0.96828 -6.84939,0.89002 -0.27449,-0.0782 -1.84662,-0.32712 -3.49361,-0.55304 z m 24.05702,-45.519769 c 11.69024,-8.26705 11.6734,-24.77682 -0.0253,-24.76607 -9.89862,0.009 -16.18691,9.92021 -12.48425,19.67673 1.65503,4.361018 5.89719,9.446086 7.23334,8.670584 0.65047,-0.377529 3.02475,-1.989088 5.27617,-3.581244 z"
     id="path4495"
     inkscape:connector-curvature="0"
     sodipodi:nodetypes="scsccsssssssscccscscssscssscssccscccsccscsccccccsscsscccccccsccc" />
  <path
     style="fill:#000;fill-opacity:1;stroke-width:0.99908733"
     d="m 386.40011,139.34596 c -5.3002,-4.74438 -5.14428,-8.43421 1.36641,-32.3387 3.07367,-11.285159 5.58848,-21.422529 5.58848,-22.527499 0,-3.49492 -2.75389,-6.23753 -6.98174,-6.95313 -4.3287,-0.73266 -4.50486,-1.13313 -2.9561,-6.71987 3.02846,-10.92435 14.90904,-15.87357 25.62688,-10.67566 4.95056,2.40091 8.74542,8.46104 8.00686,12.78644 -0.24495,1.43449 -3.69127,15.40035 -7.65852,31.035249 -5.83012,22.97644 -7.0106,28.87246 -6.15671,30.74999 1.33174,2.92822 4.9553,3.02167 10.9801,0.28319 7.58065,-3.44568 5.6136,-1.32789 -2.49625,2.68755 -6.32639,3.13239 -9.0472,3.89743 -14.91699,4.19438 -6.74671,0.34131 -7.37348,0.18936 -10.40242,-2.52194 z m 65.17643,0.80491 c -2.29044,-1.07667 -4.87041,-3.03702 -5.73329,-4.35634 -3.53304,-5.40196 -3.10713,-9.82655 3.81241,-39.604629 3.62143,-15.58468 6.58439,-28.74718 6.58439,-29.24999 0,-0.50282 -2.69506,-0.91421 -5.98905,-0.91421 -3.32725,0 -5.98905,-0.44444 -5.98905,-1 0,-0.56223 2.78936,-1 6.37173,-1 7.08582,0 7.5607,-0.51176 7.58911,-8.17857 0.0163,-4.40389 -1.84335,-6.517 -6.50661,-7.39344 -2.91949,-0.5487 -3.45809,-1.06376 -3.4396,-3.28928 0.0352,-4.24191 3.46807,-10.64359 7.09853,-13.23764 2.89369,-2.0676 4.50141,-2.40107 11.57614,-2.40107 7.84974,0 8.35307,0.13757 11.29812,3.08801 4.63143,4.6399 5.09074,8.51739 2.31293,19.52633 -1.29932,5.1494 -2.36239,9.93025 -2.36239,10.6241 0,0.93896 2.80779,1.26156 10.97994,1.26156 6.65451,0 10.97994,0.39394 10.97994,1 0,0.60815 -4.45573,1 -11.37082,1 -11.22423,0 -11.37869,0.0315 -11.98257,2.44189 -5.03661,20.10417 -12.83721,56.042239 -12.87042,59.295199 -0.0575,5.63158 2.32173,8.26291 7.47119,8.26291 4.47378,0 10.20387,-2.67153 15.24949,-7.10973 1.93675,-1.7036 3.52137,-2.63898 3.52137,-2.07863 0,1.4959 -11.75833,10.15348 -16.9529,12.48232 -6.50582,2.91669 -16.40361,3.29672 -21.64859,0.83121 z m 63.94329,0.95652 c -3.86912,-1.67951 -6.37663,-5.99345 -6.37439,-10.96655 9.9e-4,-2.53833 4.94211,-26.12156 10.97993,-52.407189 6.03782,-26.28563 10.97785,-48.81213 10.97785,-50.05887 0,-3.3839 -2.1773,-5.73492 -6.03782,-6.51955 -2.97169,-0.60398 -3.48782,-1.14182 -3.75771,-3.91582 -0.40154,-4.12724 3.24362,-10.7201398 7.26207,-13.1346598 4.58798,-2.7567201 8.20589,-3.28670009 14.08702,-2.06355 6.4819,1.3481 10.97806,5.19039 11.91241,10.1800298 0.5,2.6701 -2.54108,17.54604 -12.39992,60.65621 -7.18432,31.415169 -13.06239,57.993029 -13.06239,59.061939 0,5.01442 5.22078,6.02809 12.3204,2.39215 1.56076,-0.79932 3.08636,-1.20423 3.39022,-0.89981 0.30387,0.30442 -2.88682,2.1898 -7.09043,4.18973 -8.02606,3.81852 -17.87829,5.36506 -22.20724,3.48594 z m 68.15378,-0.75296 c -10.87457,-3.77173 -18.46194,-14.51352 -19.40146,-27.46754 -2.22502,-30.678469 30.62407,-57.286959 60.95262,-49.372929 10.76966,2.81026 17.6741,9.84075 17.6741,17.99677 0,13.4299 -13.57394,19.954319 -41.59852,19.994619 l -14.14867,0.0203 -0.5744,2.87501 c -1.78529,8.93578 0.38392,21.76192 4.58545,27.11309 4.6975,5.98282 14.33414,7.99265 23.5028,4.90178 5.61821,-1.89397 16.20444,-9.17624 19.07153,-13.11932 1.10654,-1.5218 2.28514,-2.49312 2.61914,-2.15851 1.37992,1.38243 -13.00894,13.26546 -20.21307,16.69294 -6.71905,3.19669 -8.39362,3.56582 -17.5366,3.86565 -7.55484,0.24775 -11.32696,-0.0912 -14.93292,-1.34191 z m 18.50048,-41.453109 c 13.89506,-2.95362 21.75945,-11.22141 21.75945,-22.87562 0,-13.37367 -10.77452,-16.76149 -21.57821,-6.78479 -4.74735,4.38395 -11.1265,16.22065 -13.76146,25.53479 l -1.48522,5.249999 h 4.88794 c 2.68836,0 7.26825,-0.505972 10.1775,-1.124379 z m 59.08448,40.409009 c 2.0334,-6.60974 11.58557,-50.881579 11.58557,-53.696069 0,-4.02489 -2.80522,-6.58856 -7.20934,-6.58856 -2.36433,0 -2.7692,-0.40479 -2.7505,-2.75 0.0317,-3.98631 3.28892,-10.5675 6.47114,-13.0752 5.88182,-4.63511 13.30259,-4.98609 20.54759,-0.97182 6.45568,3.57692 8.51026,10.08252 5.93436,18.79042 -1.69878,5.74276 -1.22664,5.61621 2.89776,-0.7767 7.60596,-11.78941 14.80998,-17.2167 22.85291,-17.2167 10.41966,0 15.6009,13.38373 8.09306,20.90529 -7.24008,7.25331 -18.09623,3.02449 -19.84091,-7.72867 l -0.59241,-3.65122 -4.85821,4.48633 c -8.38196,7.74034 -10.4444,12.62556 -16.64919,39.436289 l -5.56632,24.05198 -10.73226,0.28463 c -9.91041,0.26283 -10.69022,0.14796 -10.18325,-1.5 z m -463.20529,-0.38202 c 16.6416,-2.43603 21.20081,-10.01734 36.62523,-60.902609 10.75856,-35.49254 11.44943,-44.29045 3.84193,-48.9253 -1.7389,-1.05942 -5.36919,-2.23039 -8.06731,-2.60215 -4.88641,-0.67328 -4.903,-0.68829 -4.22774,-3.82424 1.21973,-5.66452 4.39157,-10.59645 8.61606,-13.3971898 3.55583,-2.35743 5.17105,-2.75112 11.28745,-2.75112 6.24438,0 7.58716,0.34334 10.72747,2.74296 2.0503,1.5667008 4.62641,4.9973398 6.00729,7.9999998 1.3297,2.89137 7.09084,24.9215 12.80254,48.95585 5.71171,24.03434 10.69241,43.384349 11.06822,42.999999 0.37582,-0.38434 12.53086,-19.373809 27.01121,-42.198809 l 26.32791,-41.5 18.40577,-0.15146 c 17.19535,-0.14151 18.05019,-0.0639 12.99846,1.17958 -6.65191,1.63741 -9.89866,3.95754 -12.79023,9.13988 -2.67435,4.79301 -17.23768,81.992409 -17.23768,91.375949 0,7.39383 2.43311,10.60905 8.98358,11.87134 2.97066,0.57245 -5.14201,0.86558 -23.95621,0.86558 -18.46144,0 -26.92494,-0.30007 -24.10939,-0.85477 2.38624,-0.47013 5.75509,-1.68133 7.48633,-2.69156 6.16131,-3.59532 7.32857,-7.44106 14.73372,-48.542319 3.78454,-21.00572 7.27502,-40.36463 7.75659,-43.0198 0.48159,-2.65518 0.51908,-4.45518 0.0833,-4 -0.43579,0.45517 -14.12999,21.75258 -30.4316,47.32758 -16.30161,25.575009 -30.21286,47.107869 -30.91389,47.850809 -1.04238,1.10472 -3.34104,-7.04613 -12.61733,-44.740149 -6.23851,-25.35004 -11.60539,-46.09541 -11.9264,-46.10082 -0.321,-0.005 -3.41296,9.55266 -6.87102,21.24016 -14.23015,48.095029 -16.89187,63.949859 -11.62218,69.229179 1.31115,1.31355 4.11852,2.67306 6.2386,3.02114 2.12007,0.34807 4.52845,0.77569 5.35194,0.95027 0.82349,0.17457 -9.50762,0.31473 -22.95804,0.31147 -17.41455,-0.004 -22.77664,-0.25167 -18.62464,-0.85945 z"
     id="path4495-9"
     inkscape:connector-curvature="0"
     sodipodi:nodetypes="scscsscsscsssscsssssccccsscssssccscscsccsssccssssccsccsssccscsccssccsssscsscssccsssssccsscsccsscssscsscscsccssscccccscscscccccc" />
</svg>
